<svg width="153" height="50" viewBox="0 0 153 50" fill="none" xmlns="http://www.w3.org/2000/svg">
<g id="Group 1171275160">
<g id="Group 1171275158">
<path id="Vector" d="M28.1641 29.3355V16.0052H32.4138V29.6988C32.4138 30.8127 32.9707 31.3696 34.0847 31.3696H40.0779V16.0052H44.3276V35.0745H33.9031C30.0771 35.0745 28.1641 33.1616 28.1641 29.3355ZM49.7696 35.0745V16.0052H71.4906C75.2924 16.0052 77.1932 17.9181 77.1932 21.7442V35.0745H72.9435V21.3809C72.9435 20.267 72.3865 19.7101 71.2726 19.7101H65.6062V35.0745H61.3565V19.7101H54.0193V35.0745H49.7696ZM117.087 29.3355V21.7442C117.087 17.9181 119 16.0052 122.826 16.0052H129.691L131.617 17.4217V19.7101H123.008C121.894 19.7101 121.337 20.267 121.337 21.3809V29.6988C121.337 30.8127 121.894 31.3696 123.008 31.3696H131.617V33.658L129.691 35.0745H122.826C119 35.0745 117.087 33.1616 117.087 29.3355ZM136.001 35.0745V8.1958H140.25V16.0052H146.461C150.263 16.0052 152.164 17.9181 152.164 21.7442V35.0745H147.914V21.3809C147.914 20.267 147.357 19.7101 146.243 19.7101H140.25V35.0745H136.001Z" fill="url(#paint0_linear_82_2422)"/>
<path id="Vector_2" d="M82.3643 29.3358V10.0122H86.614V16.0054H98.4583V19.7103H86.614V29.699C86.614 30.8129 87.1709 31.3699 88.2848 31.3699H93.479V33.6582L91.5539 35.0748H88.1033C84.2772 35.0748 82.3643 33.1618 82.3643 29.3358ZM102.236 35.0748C98.4099 35.0748 96.4968 33.1859 96.4968 29.4084C96.4968 25.6309 98.4099 23.7422 102.236 23.7422H107.83V21.3812C107.83 20.2673 107.273 19.7103 106.159 19.7103H98.4583V17.422V16.0054H106.377C110.178 16.0054 112.079 17.9184 112.079 21.7445V35.0748H102.236ZM100.747 29.699C100.747 30.8129 101.304 31.3699 102.418 31.3699H107.83V27.0476H102.418C101.304 27.0476 100.747 27.5924 100.747 28.682V29.699Z" fill="#A6EB53"/>
</g>
<g id="Group 1171275159">
<path id="Vector 10" d="M0.921456 19.7133C0.921456 19.7133 -0.426925 11.8446 0.944617 9.34558C2.31617 6.84652 16.7958 0.407427 16.7958 0.407427V28.0698L12.1635 25.4439V8.29191L5.55829 12.0643V22.1143L0.921456 19.7133Z" fill="#A6EB53"/>
<path id="Vector 11" d="M12.6947 49.5923L17.3082 46.7175L5.55828 40.21V32.9287L22.6565 42.5739L28.1641 40.21L0.921447 25.2021C0.921447 25.2021 -0.782669 40.4672 0.921447 42.9269C2.62559 45.3865 12.6947 49.5923 12.6947 49.5923Z" fill="white"/>
</g>
</g>
<defs>
<linearGradient id="paint0_linear_82_2422" x1="35.7257" y1="16.5716" x2="198.348" y2="16.1951" gradientUnits="userSpaceOnUse">
<stop stop-color="white"/>
<stop offset="1" stop-color="white" stop-opacity="0.32"/>
</linearGradient>
</defs>
</svg>
